<svg width="151" height="133" viewBox="0 0 151 133" fill="none" xmlns="http://www.w3.org/2000/svg">
<path d="M55.1731 126.755C85.6443 126.755 110.346 102.053 110.346 71.5818C110.346 41.1105 85.6443 16.4087 55.1731 16.4087C24.7018 16.4087 0 41.1105 0 71.5818C0 102.053 24.7018 126.755 55.1731 126.755Z" fill="#FFD506"/>
<path d="M96.7347 108.968C126.705 108.968 151 84.6726 151 54.7028C151 24.7329 126.705 0.4375 96.7347 0.4375C66.7649 0.4375 42.4695 24.7329 42.4695 54.7028C42.4695 84.6726 66.7649 108.968 96.7347 108.968Z" fill="#39A9DC"/>
<path d="M68.5136 53.1225C68.5136 62.4779 71.0911 70.0196 76.2461 75.7474C81.4776 81.5516 88.2364 84.4537 96.5227 84.4537C103.778 84.4537 109.773 82.6399 114.508 79.0123C119.281 75.3464 121.668 70.5923 121.668 64.75H88.2173V51.2323H137.477V58.5066C137.477 70.5351 133.734 80.2151 126.25 87.5467C118.766 94.8402 108.857 98.4869 96.5227 98.4869C88.1982 98.4869 80.6948 96.5394 74.0123 92.6445C67.3298 88.7496 62.0984 83.3463 58.318 76.4347C54.5759 69.5231 52.7048 61.7524 52.7048 53.1225C52.7048 46.7455 53.8121 40.7694 56.0269 35.1944C58.2417 29.6193 61.2774 24.8652 65.1342 20.9321C69.0291 16.9608 73.7068 13.8486 79.1673 11.5957C84.6279 9.34274 90.4703 8.21627 96.6945 8.21627C106.508 8.21627 114.985 10.6792 122.126 15.6052C129.152 20.4929 133.773 26.8508 135.987 34.6788L121.324 38.9174C119.949 34.0679 117.028 30.0775 112.561 26.9463C108.131 23.8151 102.842 22.2495 96.6945 22.2495C88.3319 22.2495 81.5539 25.0752 76.3607 30.7266C71.1293 36.4163 68.5136 43.8816 68.5136 53.1225Z" fill="#141414"/>
</svg>
