<svg width="104" height="91" viewBox="0 0 104 91" fill="none" xmlns="http://www.w3.org/2000/svg">
<path d="M38 87C58.9868 87 76 69.9868 76 49C76 28.0132 58.9868 11 38 11C17.0132 11 0 28.0132 0 49C0 69.9868 17.0132 87 38 87Z" fill="#FFD506"/>
<path d="M66.6252 74.7495C87.2667 74.7495 104 58.0162 104 37.3747C104 16.7332 87.2667 0 66.6252 0C45.9837 0 29.2505 16.7332 29.2505 37.3747C29.2505 58.0162 45.9837 74.7495 66.6252 74.7495Z" fill="#39A9DC"/>
<path d="M47.1882 36.5446C47.1882 42.9881 48.9635 48.1824 52.514 52.1274C56.1171 56.125 60.7722 58.1238 66.4793 58.1238C71.4762 58.1238 75.6053 56.8745 78.8665 54.376C82.154 51.8512 83.7978 48.5769 83.7978 44.553H60.759V35.2428H94.686V40.2529C94.686 48.5374 92.1086 55.2045 86.9538 60.2541C81.799 65.2774 74.9741 67.789 66.4793 67.789C60.7459 67.789 55.5779 66.4477 50.9754 63.7651C46.3729 61.0825 42.7698 57.3611 40.1661 52.6008C37.5887 47.8405 36.3 42.4884 36.3 36.5446C36.3 32.1525 37.0627 28.0366 38.5881 24.1968C40.1135 20.357 42.2044 17.0827 44.8607 14.3738C47.5433 11.6386 50.765 9.49512 54.5259 7.94343C58.2868 6.39173 62.3107 5.61588 66.5976 5.61588C73.3567 5.61588 79.1953 7.31223 84.1134 10.7049C88.9526 14.0713 92.1349 18.4503 93.6603 23.8418L83.5611 26.7611C82.6143 23.421 80.6023 20.6726 77.5252 18.516C74.4744 16.3594 70.8319 15.2811 66.5976 15.2811C60.8379 15.2811 56.1697 17.2273 52.5929 21.1197C48.9898 25.0384 47.1882 30.18 47.1882 36.5446Z" fill="white"/>
</svg>
