<svg width="82" height="108" viewBox="0 0 82 108" fill="none" xmlns="http://www.w3.org/2000/svg">
<path d="M44.6252 77.7495C65.2667 77.7495 82 61.0162 82 40.3747C82 19.7332 65.2667 3 44.6252 3C23.9837 3 7.25049 19.7332 7.25049 40.3747C7.25049 61.0162 23.9837 77.7495 44.6252 77.7495Z" fill="#FFD506"/>
<path d="M28.8582 107.039C44.7962 107.039 57.7165 94.119 57.7165 78.181C57.7165 62.243 44.7962 49.3228 28.8582 49.3228C12.9203 49.3228 0 62.243 0 78.181C0 94.119 12.9203 107.039 28.8582 107.039Z" fill="#39A9DC"/>
<path d="M53.218 48.7336H67.2498V71.9864C64.0425 74.2849 60.3542 76.0489 56.1847 77.2784C52.0153 78.5078 47.8458 79.1225 43.6764 79.1225C37.7964 79.1225 32.5044 77.8931 27.8004 75.4342C23.0964 72.9218 19.408 69.4473 16.7353 65.0105C14.0625 60.5738 12.7262 55.5491 12.7262 49.9364C12.7262 44.3236 14.0625 39.2989 16.7353 34.8622C19.408 30.4255 23.1231 26.9776 27.8805 24.5187C32.638 22.0064 38.0102 20.7502 43.9971 20.7502C49.2356 20.7502 53.9396 21.6322 58.1091 23.3962C62.2785 25.1602 65.7531 27.6993 68.5327 31.0135L58.4298 40.1542C54.6345 35.9847 50.0909 33.9 44.7989 33.9C39.988 33.9 36.1125 35.37 33.1725 38.31C30.2325 41.1965 28.7625 45.072 28.7625 49.9364C28.7625 53.0367 29.4307 55.8164 30.7671 58.2753C32.1035 60.6807 33.9744 62.5784 36.3798 63.9682C38.7853 65.3045 41.5382 65.9727 44.6385 65.9727C47.6855 65.9727 50.5453 65.358 53.218 64.1285V48.7336Z" fill="#141414"/>
</svg>
