<svg width="49" height="40" viewBox="0 0 49 40" fill="none" xmlns="http://www.w3.org/2000/svg">
<path d="M47.8403 19.1901L43.469 12.1327C43.5625 11.9585 43.6326 11.7624 43.6326 11.5446C43.6326 10.8911 43.0483 10.3465 42.347 10.3247L37.5081 2.5267C37.5549 2.39602 37.6016 2.26534 37.6016 2.13466C37.6016 1.43767 36.9938 0.893066 36.2691 0.893066C35.8484 0.893066 35.4978 1.06733 35.2406 1.35049H25.9371C25.7033 1.06742 25.3526 0.893148 24.9319 0.893148C24.5112 0.893148 24.1605 1.06742 23.9267 1.35057H14.6699C14.4127 1.06742 14.0621 0.893148 13.6413 0.893148C12.9167 0.893148 12.3089 1.43767 12.3089 2.13474C12.3089 2.26542 12.3557 2.41789 12.4024 2.52678L7.51681 10.4337C7.04939 10.6297 6.72204 11.0436 6.72204 11.5447C6.72204 11.5882 6.74543 11.6318 6.74543 11.6753L2.09359 19.1684C1.46245 19.2773 0.994862 19.7783 0.994862 20.3882C0.994862 20.9763 1.43898 21.4773 2.04681 21.608L6.86229 29.3625C6.81551 29.4932 6.79212 29.602 6.79212 29.7545C6.79212 30.3426 7.23624 30.8436 7.84407 30.9525L12.3557 38.2495C12.3089 38.3802 12.2622 38.5327 12.2622 38.6851C12.2622 39.3821 12.87 39.9267 13.5946 39.9267C14.0154 39.9267 14.366 39.7525 14.5998 39.4911H23.9268C24.1605 39.7524 24.5345 39.9267 24.9319 39.9267C25.3292 39.9267 25.7033 39.7524 25.9371 39.491H35.2874C35.5211 39.7306 35.8718 39.8831 36.2458 39.8831C36.9938 39.8831 37.5783 39.3168 37.5783 38.6415C37.5783 38.5108 37.555 38.4019 37.5082 38.293L42.0198 30.9524C42.6275 30.8436 43.0717 30.3425 43.0717 29.7544C43.0717 29.6238 43.0484 29.4931 43.0016 29.3624L47.7937 21.6079C48.4014 21.499 48.869 20.998 48.869 20.3881C48.8688 19.8 48.4246 19.299 47.8403 19.1901ZM13.1971 36.2455L9.38692 30.0812H13.1971V36.2455ZM13.1971 29.4277H9.38692C9.36353 29.3406 9.31676 29.2535 9.27007 29.1663L13.1971 25.311V29.4277ZM13.1971 24.3524L8.80247 28.6871C8.68562 28.6435 8.56868 28.5781 8.45182 28.5564L3.58975 20.7148C3.63644 20.606 3.63644 20.497 3.63644 20.3881C3.63644 20.2792 3.63644 20.1921 3.61305 20.1049L8.14804 12.7862C8.38183 12.7644 8.61554 12.699 8.82595 12.5683L13.1972 16.7941V24.3524H13.1971ZM13.1971 16.0316L9.1999 12.1763C9.31676 12.002 9.38692 11.7842 9.38692 11.5447C9.38692 11.5229 9.36353 11.4793 9.36353 11.4575L13.1971 10.1723V16.0316ZM13.1971 9.47523L9.38692 10.7604L13.1971 4.61784V9.47523ZM41.6924 12.6555L41.7626 12.7644L38.6769 26.3564L33.1135 20.8891L41.6691 12.6337L41.6924 12.6555ZM25.2592 28.4693L26.2643 29.4277H24.2774L25.2592 28.4693ZM25.2358 27.5544L17.9659 20.606L24.9085 13.7446L32.1551 20.8673L25.2358 27.5544ZM25.7033 28.0336L32.6226 21.3465L38.5133 27.1406L37.9991 29.4277H27.1759L25.7033 28.0336ZM35.6147 3.20206C35.7082 3.24565 35.8016 3.28924 35.9186 3.31103L40.9678 11.5011V11.5447C40.9678 11.7842 41.0378 12.002 41.1548 12.1763L32.6459 20.4099L25.3995 13.2872L35.6147 3.20206ZM34.8199 3.02779L24.9085 12.808L19.9294 7.90698L34.4458 3.02779H34.8199ZM24.0436 3.02779C24.2773 3.24557 24.5812 3.37625 24.9319 3.37625C25.2826 3.37625 25.5864 3.24557 25.8202 3.02779H32.3655L19.4152 7.38417L14.9738 3.02779H24.0436ZM13.8985 3.48522L13.992 3.31103C14.0709 3.29225 14.1488 3.27044 14.2258 3.24565L18.6906 7.62391L13.8985 9.23575V3.48522ZM13.8985 9.93274L19.2048 8.14663L24.4176 13.2872L17.475 20.1267L13.8985 16.707V9.93274ZM13.8985 17.4693L17.0776 20.5406L13.8985 23.6555V17.4693ZM13.8985 24.6139L17.5685 20.9981L24.7916 27.9901L23.2956 29.4277H13.8985V24.6139ZM14.5063 37.792C14.366 37.6613 14.2024 37.5742 13.992 37.5089L13.8985 37.3782V30.0812H22.6177L14.6231 37.792H14.5063ZM25.8436 37.792C25.6098 37.596 25.2826 37.4436 24.9319 37.4436C24.5812 37.4436 24.2541 37.596 24.0202 37.792H15.6048L23.5994 30.0812H26.9422L34.9367 37.792H25.8436ZM36.316 36.8336L35.942 37.4435C35.8251 37.4653 35.7316 37.5088 35.6381 37.5524L27.854 30.0811H37.8355L36.316 36.8336ZM37.4379 35.0257L38.5601 30.0812H40.4769L37.4379 35.0257ZM40.4769 29.4277H38.7003L39.0976 27.707L40.5937 29.1881C40.547 29.2534 40.5002 29.3405 40.4769 29.4277ZM46.2507 20.6931L41.4119 28.5564C41.295 28.5999 41.1781 28.6435 41.0612 28.7088L39.2613 26.9227L42.2768 13.5921L46.274 20.0396C46.2507 20.1485 46.204 20.2574 46.204 20.3881C46.204 20.497 46.2273 20.5842 46.2507 20.6931Z" fill="#39A9DC"/>
</svg>
