<svg width="44" height="40" viewBox="0 0 44 40" fill="none" xmlns="http://www.w3.org/2000/svg">
<path d="M11.9979 16.253C11.6269 16.0003 11.255 15.874 10.884 15.874H9.21653V24.9763H10.885C11.256 24.9763 11.6279 24.85 11.9989 24.5973C12.3699 24.3446 12.5553 23.9656 12.5553 23.4594V17.3909C12.5544 16.8855 12.3679 16.5057 11.9979 16.253ZM39.1502 0.893066H4.71027C2.39643 0.893066 0.518585 2.59992 0.512848 4.7093V36.1105C0.518585 38.2199 2.39643 39.9267 4.71027 39.9267H39.1502C41.465 39.9267 43.3419 38.2199 43.3476 36.1105V4.7093C43.3419 2.59992 41.464 0.893066 39.1502 0.893066ZM15.2564 23.476C15.2564 25.1148 14.1463 27.598 10.6326 27.5928H6.1961V13.1765H10.7263C14.1148 13.1765 15.2545 15.6562 15.2555 17.2959L15.2564 23.476ZM24.8828 15.7511H19.7885V19.0986H22.9026V21.675H19.7885V25.0216H24.8837V27.598H18.9385C17.8714 27.6233 16.9842 26.8548 16.9574 25.8825V14.9818C16.9316 14.0103 17.7758 13.2035 18.8419 13.1791H24.8837L24.8828 15.7511ZM34.7921 25.7962C33.53 28.4754 31.2688 27.9422 30.2562 25.7962L26.5723 13.18H29.6864L32.5271 23.0882L35.3543 13.18H38.4694L34.7921 25.7962Z" fill="#39A9DC"/>
</svg>
