<svg width="39" height="40" viewBox="0 0 39 40" fill="none" xmlns="http://www.w3.org/2000/svg">
<path d="M38.073 13.0685L20.7994 1.17539C20.2098 0.800677 19.5806 0.797246 18.9856 1.17539L1.71195 13.0685C1.26904 13.3734 0.994873 13.918 0.994873 14.4625V26.3555C0.994873 26.9001 1.26904 27.4447 1.71202 27.7496L18.9857 39.6444C19.5752 40.0191 20.2045 40.0225 20.7995 39.6444L38.0731 27.7496C38.516 27.4447 38.7902 26.9001 38.7902 26.3555V14.4625C38.7902 13.918 38.516 13.3734 38.073 13.0685ZM21.5165 5.70597L34.2345 14.4625L28.561 18.3833L21.5165 13.5258V5.70597ZM18.2685 5.70597V13.5258L11.224 18.3833L5.55054 14.4625L18.2685 5.70597ZM4.24291 17.5992L8.3135 20.4091L4.24291 23.219V17.5992ZM18.2685 35.1121L5.55054 26.3556L11.224 22.4348L18.2685 27.2923V35.1121ZM19.8925 24.3734L14.1557 20.4091L19.8925 16.4447L25.6294 20.4091L19.8925 24.3734ZM21.5165 35.1121V27.2923L28.561 22.4348L34.2345 26.3556L21.5165 35.1121ZM35.5421 23.219L31.4715 20.4091L35.5421 17.5992V23.219Z" fill="#39A9DC"/>
</svg>
